<?xml version="1.0" standalone="no"?>
<!DOCTYPE svg PUBLIC "-//W3C//DTD SVG 20010904//EN"
 "http://www.w3.org/TR/2001/REC-SVG-20010904/DTD/svg10.dtd">
<svg version="1.0" xmlns="http://www.w3.org/2000/svg"
 width="512.000000pt" height="512.000000pt" viewBox="0 0 512.000000 512.000000"
 preserveAspectRatio="xMidYMid meet">

<g transform="translate(0.000000,512.000000) scale(0.100000,-0.100000)"
fill="#000000" stroke="none">
<path d="M1039 5026 c-50 -17 -88 -49 -122 -99 l-28 -42 -252 -5 c-233 -5
-256 -7 -310 -29 -81 -32 -168 -115 -210 -200 l-32 -66 -3 -1839 c-2 -1659 -1
-1845 14 -1895 40 -142 156 -249 302 -280 37 -8 354 -11 1067 -11 l1015 0 0
-27 c1 -76 91 -181 175 -202 24 -6 68 -11 98 -11 l53 0 24 -51 c71 -158 269
-231 422 -156 68 33 143 112 159 168 l12 39 332 0 331 0 24 -51 c71 -158 269
-231 422 -156 67 33 143 112 159 167 l11 38 82 4 c117 7 183 46 232 138 18 32
19 68 22 480 l3 446 -141 187 -140 187 -180 0 -180 0 0 925 0 925 24 0 c38 0
155 39 226 76 137 70 239 174 310 319 141 285 88 601 -139 825 -135 134 -281
198 -471 207 -367 18 -667 -228 -745 -609 l-5 -28 -159 0 -158 0 -6 83 c-9
149 -76 268 -187 335 -95 57 -128 62 -391 62 l-237 0 -12 30 c-17 42 -90 104
-138 118 -59 18 -1223 16 -1273 -2z m1248 -170 l28 -24 0 -191 c0 -185 -1
-191 -23 -213 l-23 -23 -572 -3 c-314 -1 -582 0 -594 3 -12 3 -32 15 -43 27
-19 20 -20 35 -20 210 0 187 0 189 25 213 l24 25 585 0 585 0 28 -24z m2144
10 c200 -43 373 -207 424 -401 19 -74 19 -213 0 -285 -50 -190 -204 -346 -391
-395 -78 -21 -219 -21 -291 0 -148 43 -289 157 -351 285 -205 418 158 891 609
796z m-3551 -226 l0 -80 -182 0 c-171 0 -186 -2 -222 -23 -21 -12 -47 -38 -57
-57 -18 -33 -19 -99 -19 -1761 l0 -1726 22 -33 c13 -18 36 -43 51 -54 28 -21
32 -21 1018 -24 l989 -2 0 -80 0 -80 -1032 2 -1033 3 -41 22 c-53 28 -107 91
-122 142 -9 28 -12 500 -12 1833 0 2026 -7 1853 80 1931 27 24 63 48 82 54 19
6 129 11 256 12 l222 1 0 -80z m2105 53 c51 -27 89 -67 112 -118 17 -38 18
-109 21 -1267 l2 -1228 -80 0 -80 0 -2 1189 c-3 1189 -3 1190 -24 1218 -11 15
-36 38 -54 51 -31 21 -43 22 -216 22 l-184 0 0 81 0 80 233 -3 c215 -3 235 -5
272 -25z m-2085 -309 c0 -27 101 -119 146 -132 53 -15 1200 -17 1255 -2 55 15
101 50 134 102 l30 47 168 0 167 1 0 -1160 0 -1160 -160 0 -160 0 0 -520 0
-520 -960 0 -960 0 0 1680 0 1680 170 0 c148 0 170 -2 170 -16z m2704 -156 c2
-7 10 -44 20 -83 61 -259 289 -478 550 -527 l66 -13 0 -922 0 -923 -80 0 -80
0 0 160 0 160 -400 0 -400 0 0 1080 0 1080 160 0 c120 0 161 -3 164 -12z
m-644 -2468 l0 -160 320 0 320 0 0 160 0 160 160 0 160 0 -2 -557 -3 -558
-637 -3 -638 -2 0 560 0 560 160 0 160 0 0 -160z m470 85 l0 -75 -155 0 -155
0 0 75 0 75 155 0 155 0 0 -75z m1343 -375 l97 -130 0 -270 0 -270 -395 0
-395 0 0 400 0 400 298 0 297 0 98 -130z m-1907 -875 c-19 -24 -39 -60 -46
-80 -11 -34 -13 -35 -61 -35 -54 0 -103 20 -113 45 -3 9 -6 39 -6 66 l0 49
130 0 130 0 -34 -45z m1280 0 c-19 -24 -39 -60 -46 -80 l-12 -35 -328 0 -329
0 -20 45 c-11 24 -32 60 -47 80 l-26 35 421 0 421 0 -34 -45z m732 -12 c-7
-76 -36 -103 -113 -103 l-54 0 -20 45 c-11 24 -32 60 -47 80 l-26 35 132 0
132 0 -4 -57z m-1692 -44 c63 -30 87 -75 82 -150 -4 -50 -9 -64 -37 -93 -79
-81 -214 -57 -255 44 -20 51 -20 83 0 127 39 82 128 112 210 72z m1280 0 c63
-30 87 -75 82 -150 -4 -50 -9 -64 -37 -93 -79 -81 -214 -57 -255 44 -20 51
-20 83 0 127 39 82 128 112 210 72z"/>
<path d="M4365 4410 l-210 -210 -50 50 -51 50 -57 -58 -57 -57 110 -110 110
-110 270 270 270 270 -57 57 c-32 32 -60 58 -63 58 -3 0 -100 -94 -215 -210z"/>
<path d="M1094 3863 c-109 -147 -204 -273 -211 -282 -10 -14 -18 -10 -60 31
l-49 48 -57 -58 -57 -57 113 -113 114 -113 267 357 268 357 -23 18 c-13 10
-42 32 -65 48 l-40 30 -200 -266z"/>
<path d="M1600 4000 l0 -80 520 0 520 0 0 80 0 80 -520 0 -520 0 0 -80z"/>
<path d="M1600 3680 l0 -80 360 0 360 0 0 80 0 80 -360 0 -360 0 0 -80z"/>
<path d="M2480 3680 l0 -80 80 0 80 0 0 80 0 80 -80 0 -80 0 0 -80z"/>
<path d="M1600 3360 l0 -80 520 0 520 0 0 80 0 80 -520 0 -520 0 0 -80z"/>
<path d="M1094 2903 c-109 -147 -204 -273 -211 -282 -10 -14 -18 -10 -60 31
l-49 48 -57 -58 -57 -57 113 -113 114 -113 267 357 268 357 -23 18 c-13 10
-42 32 -65 48 l-40 30 -200 -266z"/>
<path d="M1600 3040 l0 -80 520 0 520 0 0 80 0 80 -520 0 -520 0 0 -80z"/>
<path d="M1600 2720 l0 -80 360 0 360 0 0 80 0 80 -360 0 -360 0 0 -80z"/>
<path d="M2480 2720 l0 -80 80 0 80 0 0 80 0 80 -80 0 -80 0 0 -80z"/>
<path d="M1600 2400 l0 -80 520 0 520 0 0 80 0 80 -520 0 -520 0 0 -80z"/>
<path d="M720 1600 l0 -400 480 0 480 0 0 400 0 400 -480 0 -480 0 0 -400z
m800 0 l0 -240 -320 0 -320 0 0 240 0 240 320 0 320 0 0 -240z"/>
<path d="M1840 1920 l0 -80 240 0 240 0 0 80 0 80 -240 0 -240 0 0 -80z"/>
<path d="M1840 1600 l0 -80 240 0 240 0 0 80 0 80 -240 0 -240 0 0 -80z"/>
<path d="M1840 1280 l0 -80 240 0 240 0 0 80 0 80 -240 0 -240 0 0 -80z"/>
</g>
</svg>
