<?xml version="1.0" encoding="utf-8" standalone="no"?>
<!DOCTYPE svg PUBLIC "-//W3C//DTD SVG 1.1//EN"
  "http://www.w3.org/Graphics/SVG/1.1/DTD/svg11.dtd">
<svg xmlns:xlink="http://www.w3.org/1999/xlink" width="1440pt" height="576pt" viewBox="0 0 1440 576" xmlns="http://www.w3.org/2000/svg" version="1.1">
 <metadata>
  <rdf:RDF xmlns:dc="http://purl.org/dc/elements/1.1/" xmlns:cc="http://creativecommons.org/ns#" xmlns:rdf="http://www.w3.org/1999/02/22-rdf-syntax-ns#">
   <cc:Work>
    <dc:type rdf:resource="http://purl.org/dc/dcmitype/StillImage"/>
    <dc:date>2022-09-29T17:57:40.707581</dc:date>
    <dc:format>image/svg+xml</dc:format>
    <dc:creator>
     <cc:Agent>
      <dc:title>Matplotlib v3.5.3, https://matplotlib.org/</dc:title>
     </cc:Agent>
    </dc:creator>
   </cc:Work>
  </rdf:RDF>
 </metadata>
 <defs>
  <style type="text/css">*{stroke-linejoin: round; stroke-linecap: butt}</style>
 </defs>
 <g id="figure_1">
  <g id="patch_1">
   <path d="M 0 576 
L 1440 576 
L 1440 0 
L 0 0 
z
" style="fill: #ffffff"/>
  </g>
  <g id="axes_1">
   <g id="patch_2">
    <path d="M 180 512.64 
L 1296 512.64 
L 1296 69.12 
L 180 69.12 
z
" style="fill: #ffffff"/>
   </g>
   <g id="patch_3">
    <path d="M 180 164.16 
L 482.25 164.16 
L 482.25 227.52 
L 180 227.52 
z
" clip-path="url(#pf519fdeea5)" style="fill: #dc143c; opacity: 0.8; stroke: #dc143c; stroke-linejoin: miter"/>
   </g>
   <g id="patch_4">
    <path d="M 482.25 164.16 
L 784.5 164.16 
L 784.5 227.52 
L 482.25 227.52 
z
" clip-path="url(#pf519fdeea5)" style="fill: #8b0000; opacity: 0.8; stroke: #8b0000; stroke-linejoin: miter"/>
   </g>
   <g id="patch_5">
    <path d="M 784.5 164.16 
L 1086.75 164.16 
L 1086.75 227.52 
L 784.5 227.52 
z
" clip-path="url(#pf519fdeea5)" style="fill: #8a2be2; opacity: 0.8; stroke: #8a2be2; stroke-linejoin: miter"/>
   </g>
   <g id="patch_6">
    <path d="M 180 269.76 
L 459 269.76 
L 459 333.12 
L 180 333.12 
z
" clip-path="url(#pf519fdeea5)" style="fill: #800080; opacity: 0.8; stroke: #800080; stroke-linejoin: miter"/>
   </g>
   <g id="patch_7">
    <path d="M 459 269.76 
L 738 269.76 
L 738 333.12 
L 459 333.12 
z
" clip-path="url(#pf519fdeea5)" style="fill: #87cefa; opacity: 0.8; stroke: #87cefa; stroke-linejoin: miter"/>
   </g>
   <g id="patch_8">
    <path d="M 738 269.76 
L 1017 269.76 
L 1017 333.12 
L 738 333.12 
z
" clip-path="url(#pf519fdeea5)" style="fill: #f0e68c; opacity: 0.8; stroke: #f0e68c; stroke-linejoin: miter"/>
   </g>
   <g id="patch_9">
    <path d="M 1017 269.76 
L 1296 269.76 
L 1296 333.12 
L 1017 333.12 
z
" clip-path="url(#pf519fdeea5)" style="fill: #e0ffff; opacity: 0.8; stroke: #e0ffff; stroke-linejoin: miter"/>
   </g>
   <g id="patch_10">
    <path d="M 180 375.36 
L 528.75 375.36 
L 528.75 438.72 
L 180 438.72 
z
" clip-path="url(#pf519fdeea5)" style="fill: #faf0e6; opacity: 0.8; stroke: #faf0e6; stroke-linejoin: miter"/>
   </g>
   <g id="patch_11">
    <path d="M 528.75 375.36 
L 877.5 375.36 
L 877.5 438.72 
L 528.75 438.72 
z
" clip-path="url(#pf519fdeea5)" style="fill: #ffd700; opacity: 0.8; stroke: #ffd700; stroke-linejoin: miter"/>
   </g>
   <g id="matplotlib.axis_1">
    <g id="xtick_1">
     <g id="line2d_1">
      <path d="M 180 512.64 
L 180 69.12 
" clip-path="url(#pf519fdeea5)" style="fill: none; stroke-dasharray: 0.8,1.32; stroke-dashoffset: 0; stroke: #808080; stroke-width: 0.8"/>
     </g>
     <g id="line2d_2">
      <defs>
       <path id="m0c0e77d6af" d="M 0 0 
L 0 3.5 
" style="stroke: #000000; stroke-width: 0.8"/>
      </defs>
      <g>
       <use xlink:href="#m0c0e77d6af" x="180" y="512.64" style="stroke: #000000; stroke-width: 0.8"/>
      </g>
     </g>
     <g id="text_1">
      <!-- 0 -->
      <g transform="translate(176.81875 527.238438)scale(0.1 -0.1)">
       <defs>
        <path id="DejaVuSans-30" d="M 2034 4250 
Q 1547 4250 1301 3770 
Q 1056 3291 1056 2328 
Q 1056 1369 1301 889 
Q 1547 409 2034 409 
Q 2525 409 2770 889 
Q 3016 1369 3016 2328 
Q 3016 3291 2770 3770 
Q 2525 4250 2034 4250 
z
M 2034 4750 
Q 2819 4750 3233 4129 
Q 3647 3509 3647 2328 
Q 3647 1150 3233 529 
Q 2819 -91 2034 -91 
Q 1250 -91 836 529 
Q 422 1150 422 2328 
Q 422 3509 836 4129 
Q 1250 4750 2034 4750 
z
" transform="scale(0.015625)"/>
       </defs>
       <use xlink:href="#DejaVuSans-30"/>
      </g>
     </g>
    </g>
    <g id="xtick_2">
     <g id="line2d_3">
      <path d="M 412.5 512.64 
L 412.5 69.12 
" clip-path="url(#pf519fdeea5)" style="fill: none; stroke-dasharray: 0.8,1.32; stroke-dashoffset: 0; stroke: #808080; stroke-width: 0.8"/>
     </g>
     <g id="line2d_4">
      <g>
       <use xlink:href="#m0c0e77d6af" x="412.5" y="512.64" style="stroke: #000000; stroke-width: 0.8"/>
      </g>
     </g>
     <g id="text_2">
      <!-- 10 -->
      <g transform="translate(406.1375 527.238438)scale(0.1 -0.1)">
       <defs>
        <path id="DejaVuSans-31" d="M 794 531 
L 1825 531 
L 1825 4091 
L 703 3866 
L 703 4441 
L 1819 4666 
L 2450 4666 
L 2450 531 
L 3481 531 
L 3481 0 
L 794 0 
L 794 531 
z
" transform="scale(0.015625)"/>
       </defs>
       <use xlink:href="#DejaVuSans-31"/>
       <use xlink:href="#DejaVuSans-30" x="63.623047"/>
      </g>
     </g>
    </g>
    <g id="xtick_3">
     <g id="line2d_5">
      <path d="M 645 512.64 
L 645 69.12 
" clip-path="url(#pf519fdeea5)" style="fill: none; stroke-dasharray: 0.8,1.32; stroke-dashoffset: 0; stroke: #808080; stroke-width: 0.8"/>
     </g>
     <g id="line2d_6">
      <g>
       <use xlink:href="#m0c0e77d6af" x="645" y="512.64" style="stroke: #000000; stroke-width: 0.8"/>
      </g>
     </g>
     <g id="text_3">
      <!-- 20 -->
      <g transform="translate(638.6375 527.238438)scale(0.1 -0.1)">
       <defs>
        <path id="DejaVuSans-32" d="M 1228 531 
L 3431 531 
L 3431 0 
L 469 0 
L 469 531 
Q 828 903 1448 1529 
Q 2069 2156 2228 2338 
Q 2531 2678 2651 2914 
Q 2772 3150 2772 3378 
Q 2772 3750 2511 3984 
Q 2250 4219 1831 4219 
Q 1534 4219 1204 4116 
Q 875 4013 500 3803 
L 500 4441 
Q 881 4594 1212 4672 
Q 1544 4750 1819 4750 
Q 2544 4750 2975 4387 
Q 3406 4025 3406 3419 
Q 3406 3131 3298 2873 
Q 3191 2616 2906 2266 
Q 2828 2175 2409 1742 
Q 1991 1309 1228 531 
z
" transform="scale(0.015625)"/>
       </defs>
       <use xlink:href="#DejaVuSans-32"/>
       <use xlink:href="#DejaVuSans-30" x="63.623047"/>
      </g>
     </g>
    </g>
    <g id="xtick_4">
     <g id="line2d_7">
      <path d="M 877.5 512.64 
L 877.5 69.12 
" clip-path="url(#pf519fdeea5)" style="fill: none; stroke-dasharray: 0.8,1.32; stroke-dashoffset: 0; stroke: #808080; stroke-width: 0.8"/>
     </g>
     <g id="line2d_8">
      <g>
       <use xlink:href="#m0c0e77d6af" x="877.5" y="512.64" style="stroke: #000000; stroke-width: 0.8"/>
      </g>
     </g>
     <g id="text_4">
      <!-- 30 -->
      <g transform="translate(871.1375 527.238438)scale(0.1 -0.1)">
       <defs>
        <path id="DejaVuSans-33" d="M 2597 2516 
Q 3050 2419 3304 2112 
Q 3559 1806 3559 1356 
Q 3559 666 3084 287 
Q 2609 -91 1734 -91 
Q 1441 -91 1130 -33 
Q 819 25 488 141 
L 488 750 
Q 750 597 1062 519 
Q 1375 441 1716 441 
Q 2309 441 2620 675 
Q 2931 909 2931 1356 
Q 2931 1769 2642 2001 
Q 2353 2234 1838 2234 
L 1294 2234 
L 1294 2753 
L 1863 2753 
Q 2328 2753 2575 2939 
Q 2822 3125 2822 3475 
Q 2822 3834 2567 4026 
Q 2313 4219 1838 4219 
Q 1578 4219 1281 4162 
Q 984 4106 628 3988 
L 628 4550 
Q 988 4650 1302 4700 
Q 1616 4750 1894 4750 
Q 2613 4750 3031 4423 
Q 3450 4097 3450 3541 
Q 3450 3153 3228 2886 
Q 3006 2619 2597 2516 
z
" transform="scale(0.015625)"/>
       </defs>
       <use xlink:href="#DejaVuSans-33"/>
       <use xlink:href="#DejaVuSans-30" x="63.623047"/>
      </g>
     </g>
    </g>
    <g id="xtick_5">
     <g id="line2d_9">
      <path d="M 1110 512.64 
L 1110 69.12 
" clip-path="url(#pf519fdeea5)" style="fill: none; stroke-dasharray: 0.8,1.32; stroke-dashoffset: 0; stroke: #808080; stroke-width: 0.8"/>
     </g>
     <g id="line2d_10">
      <g>
       <use xlink:href="#m0c0e77d6af" x="1110" y="512.64" style="stroke: #000000; stroke-width: 0.8"/>
      </g>
     </g>
     <g id="text_5">
      <!-- 40 -->
      <g transform="translate(1103.6375 527.238438)scale(0.1 -0.1)">
       <defs>
        <path id="DejaVuSans-34" d="M 2419 4116 
L 825 1625 
L 2419 1625 
L 2419 4116 
z
M 2253 4666 
L 3047 4666 
L 3047 1625 
L 3713 1625 
L 3713 1100 
L 3047 1100 
L 3047 0 
L 2419 0 
L 2419 1100 
L 313 1100 
L 313 1709 
L 2253 4666 
z
" transform="scale(0.015625)"/>
       </defs>
       <use xlink:href="#DejaVuSans-34"/>
       <use xlink:href="#DejaVuSans-30" x="63.623047"/>
      </g>
     </g>
    </g>
   </g>
   <g id="matplotlib.axis_2">
    <g id="ytick_1">
     <g id="line2d_11">
      <path d="M 180 195.84 
L 1296 195.84 
" clip-path="url(#pf519fdeea5)" style="fill: none; stroke-dasharray: 0.8,1.32; stroke-dashoffset: 0; stroke: #808080; stroke-width: 0.8"/>
     </g>
     <g id="line2d_12">
      <defs>
       <path id="m5f113eeb05" d="M 0 0 
L -3.5 0 
" style="stroke: #000000; stroke-width: 0.8"/>
      </defs>
      <g>
       <use xlink:href="#m5f113eeb05" x="180" y="195.84" style="stroke: #000000; stroke-width: 0.8"/>
      </g>
     </g>
     <g id="text_6">
      <!-- Machine-1 -->
      <g transform="translate(100.43625 201.158906)scale(0.14 -0.14)">
       <defs>
        <path id="DejaVuSans-4d" d="M 628 4666 
L 1569 4666 
L 2759 1491 
L 3956 4666 
L 4897 4666 
L 4897 0 
L 4281 0 
L 4281 4097 
L 3078 897 
L 2444 897 
L 1241 4097 
L 1241 0 
L 628 0 
L 628 4666 
z
" transform="scale(0.015625)"/>
        <path id="DejaVuSans-61" d="M 2194 1759 
Q 1497 1759 1228 1600 
Q 959 1441 959 1056 
Q 959 750 1161 570 
Q 1363 391 1709 391 
Q 2188 391 2477 730 
Q 2766 1069 2766 1631 
L 2766 1759 
L 2194 1759 
z
M 3341 1997 
L 3341 0 
L 2766 0 
L 2766 531 
Q 2569 213 2275 61 
Q 1981 -91 1556 -91 
Q 1019 -91 701 211 
Q 384 513 384 1019 
Q 384 1609 779 1909 
Q 1175 2209 1959 2209 
L 2766 2209 
L 2766 2266 
Q 2766 2663 2505 2880 
Q 2244 3097 1772 3097 
Q 1472 3097 1187 3025 
Q 903 2953 641 2809 
L 641 3341 
Q 956 3463 1253 3523 
Q 1550 3584 1831 3584 
Q 2591 3584 2966 3190 
Q 3341 2797 3341 1997 
z
" transform="scale(0.015625)"/>
        <path id="DejaVuSans-63" d="M 3122 3366 
L 3122 2828 
Q 2878 2963 2633 3030 
Q 2388 3097 2138 3097 
Q 1578 3097 1268 2742 
Q 959 2388 959 1747 
Q 959 1106 1268 751 
Q 1578 397 2138 397 
Q 2388 397 2633 464 
Q 2878 531 3122 666 
L 3122 134 
Q 2881 22 2623 -34 
Q 2366 -91 2075 -91 
Q 1284 -91 818 406 
Q 353 903 353 1747 
Q 353 2603 823 3093 
Q 1294 3584 2113 3584 
Q 2378 3584 2631 3529 
Q 2884 3475 3122 3366 
z
" transform="scale(0.015625)"/>
        <path id="DejaVuSans-68" d="M 3513 2113 
L 3513 0 
L 2938 0 
L 2938 2094 
Q 2938 2591 2744 2837 
Q 2550 3084 2163 3084 
Q 1697 3084 1428 2787 
Q 1159 2491 1159 1978 
L 1159 0 
L 581 0 
L 581 4863 
L 1159 4863 
L 1159 2956 
Q 1366 3272 1645 3428 
Q 1925 3584 2291 3584 
Q 2894 3584 3203 3211 
Q 3513 2838 3513 2113 
z
" transform="scale(0.015625)"/>
        <path id="DejaVuSans-69" d="M 603 3500 
L 1178 3500 
L 1178 0 
L 603 0 
L 603 3500 
z
M 603 4863 
L 1178 4863 
L 1178 4134 
L 603 4134 
L 603 4863 
z
" transform="scale(0.015625)"/>
        <path id="DejaVuSans-6e" d="M 3513 2113 
L 3513 0 
L 2938 0 
L 2938 2094 
Q 2938 2591 2744 2837 
Q 2550 3084 2163 3084 
Q 1697 3084 1428 2787 
Q 1159 2491 1159 1978 
L 1159 0 
L 581 0 
L 581 3500 
L 1159 3500 
L 1159 2956 
Q 1366 3272 1645 3428 
Q 1925 3584 2291 3584 
Q 2894 3584 3203 3211 
Q 3513 2838 3513 2113 
z
" transform="scale(0.015625)"/>
        <path id="DejaVuSans-65" d="M 3597 1894 
L 3597 1613 
L 953 1613 
Q 991 1019 1311 708 
Q 1631 397 2203 397 
Q 2534 397 2845 478 
Q 3156 559 3463 722 
L 3463 178 
Q 3153 47 2828 -22 
Q 2503 -91 2169 -91 
Q 1331 -91 842 396 
Q 353 884 353 1716 
Q 353 2575 817 3079 
Q 1281 3584 2069 3584 
Q 2775 3584 3186 3129 
Q 3597 2675 3597 1894 
z
M 3022 2063 
Q 3016 2534 2758 2815 
Q 2500 3097 2075 3097 
Q 1594 3097 1305 2825 
Q 1016 2553 972 2059 
L 3022 2063 
z
" transform="scale(0.015625)"/>
        <path id="DejaVuSans-2d" d="M 313 2009 
L 1997 2009 
L 1997 1497 
L 313 1497 
L 313 2009 
z
" transform="scale(0.015625)"/>
       </defs>
       <use xlink:href="#DejaVuSans-4d"/>
       <use xlink:href="#DejaVuSans-61" x="86.279297"/>
       <use xlink:href="#DejaVuSans-63" x="147.558594"/>
       <use xlink:href="#DejaVuSans-68" x="202.539062"/>
       <use xlink:href="#DejaVuSans-69" x="265.917969"/>
       <use xlink:href="#DejaVuSans-6e" x="293.701172"/>
       <use xlink:href="#DejaVuSans-65" x="357.080078"/>
       <use xlink:href="#DejaVuSans-2d" x="418.603516"/>
       <use xlink:href="#DejaVuSans-31" x="454.6875"/>
      </g>
     </g>
    </g>
    <g id="ytick_2">
     <g id="line2d_13">
      <path d="M 180 301.44 
L 1296 301.44 
" clip-path="url(#pf519fdeea5)" style="fill: none; stroke-dasharray: 0.8,1.32; stroke-dashoffset: 0; stroke: #808080; stroke-width: 0.8"/>
     </g>
     <g id="line2d_14">
      <g>
       <use xlink:href="#m5f113eeb05" x="180" y="301.44" style="stroke: #000000; stroke-width: 0.8"/>
      </g>
     </g>
     <g id="text_7">
      <!-- Machine-2 -->
      <g transform="translate(100.43625 306.758906)scale(0.14 -0.14)">
       <use xlink:href="#DejaVuSans-4d"/>
       <use xlink:href="#DejaVuSans-61" x="86.279297"/>
       <use xlink:href="#DejaVuSans-63" x="147.558594"/>
       <use xlink:href="#DejaVuSans-68" x="202.539062"/>
       <use xlink:href="#DejaVuSans-69" x="265.917969"/>
       <use xlink:href="#DejaVuSans-6e" x="293.701172"/>
       <use xlink:href="#DejaVuSans-65" x="357.080078"/>
       <use xlink:href="#DejaVuSans-2d" x="418.603516"/>
       <use xlink:href="#DejaVuSans-32" x="454.6875"/>
      </g>
     </g>
    </g>
    <g id="ytick_3">
     <g id="line2d_15">
      <path d="M 180 407.04 
L 1296 407.04 
" clip-path="url(#pf519fdeea5)" style="fill: none; stroke-dasharray: 0.8,1.32; stroke-dashoffset: 0; stroke: #808080; stroke-width: 0.8"/>
     </g>
     <g id="line2d_16">
      <g>
       <use xlink:href="#m5f113eeb05" x="180" y="407.04" style="stroke: #000000; stroke-width: 0.8"/>
      </g>
     </g>
     <g id="text_8">
      <!-- Machine-3 -->
      <g transform="translate(100.43625 412.358906)scale(0.14 -0.14)">
       <use xlink:href="#DejaVuSans-4d"/>
       <use xlink:href="#DejaVuSans-61" x="86.279297"/>
       <use xlink:href="#DejaVuSans-63" x="147.558594"/>
       <use xlink:href="#DejaVuSans-68" x="202.539062"/>
       <use xlink:href="#DejaVuSans-69" x="265.917969"/>
       <use xlink:href="#DejaVuSans-6e" x="293.701172"/>
       <use xlink:href="#DejaVuSans-65" x="357.080078"/>
       <use xlink:href="#DejaVuSans-2d" x="418.603516"/>
       <use xlink:href="#DejaVuSans-33" x="454.6875"/>
      </g>
     </g>
    </g>
   </g>
   <g id="patch_12">
    <path d="M 180 512.64 
L 180 69.12 
" style="fill: none; stroke: #000000; stroke-width: 0.8; stroke-linejoin: miter; stroke-linecap: square"/>
   </g>
   <g id="patch_13">
    <path d="M 1296 512.64 
L 1296 69.12 
" style="fill: none; stroke: #000000; stroke-width: 0.8; stroke-linejoin: miter; stroke-linecap: square"/>
   </g>
   <g id="patch_14">
    <path d="M 180 512.64 
L 1296 512.64 
" style="fill: none; stroke: #000000; stroke-width: 0.8; stroke-linejoin: miter; stroke-linecap: square"/>
   </g>
   <g id="patch_15">
    <path d="M 180 69.12 
L 1296 69.12 
" style="fill: none; stroke: #000000; stroke-width: 0.8; stroke-linejoin: miter; stroke-linecap: square"/>
   </g>
   <g id="text_9">
    <g clip-path="url(#pf519fdeea5)">
     <!-- OP_1-1 -->
     <g transform="translate(311.676562 198.372031)scale(0.1 -0.1)">
      <defs>
       <path id="DejaVuSans-Bold-4f" d="M 2719 3878 
Q 2169 3878 1866 3472 
Q 1563 3066 1563 2328 
Q 1563 1594 1866 1187 
Q 2169 781 2719 781 
Q 3272 781 3575 1187 
Q 3878 1594 3878 2328 
Q 3878 3066 3575 3472 
Q 3272 3878 2719 3878 
z
M 2719 4750 
Q 3844 4750 4481 4106 
Q 5119 3463 5119 2328 
Q 5119 1197 4481 553 
Q 3844 -91 2719 -91 
Q 1597 -91 958 553 
Q 319 1197 319 2328 
Q 319 3463 958 4106 
Q 1597 4750 2719 4750 
z
" transform="scale(0.015625)"/>
       <path id="DejaVuSans-Bold-50" d="M 588 4666 
L 2584 4666 
Q 3475 4666 3951 4270 
Q 4428 3875 4428 3144 
Q 4428 2409 3951 2014 
Q 3475 1619 2584 1619 
L 1791 1619 
L 1791 0 
L 588 0 
L 588 4666 
z
M 1791 3794 
L 1791 2491 
L 2456 2491 
Q 2806 2491 2997 2661 
Q 3188 2831 3188 3144 
Q 3188 3456 2997 3625 
Q 2806 3794 2456 3794 
L 1791 3794 
z
" transform="scale(0.015625)"/>
       <path id="DejaVuSans-Bold-5f" d="M 3200 -916 
L 3200 -1509 
L 0 -1509 
L 0 -916 
L 3200 -916 
z
" transform="scale(0.015625)"/>
       <path id="DejaVuSans-Bold-31" d="M 750 831 
L 1813 831 
L 1813 3847 
L 722 3622 
L 722 4441 
L 1806 4666 
L 2950 4666 
L 2950 831 
L 4013 831 
L 4013 0 
L 750 0 
L 750 831 
z
" transform="scale(0.015625)"/>
       <path id="DejaVuSans-Bold-2d" d="M 347 2297 
L 2309 2297 
L 2309 1388 
L 347 1388 
L 347 2297 
z
" transform="scale(0.015625)"/>
      </defs>
      <use xlink:href="#DejaVuSans-Bold-4f"/>
      <use xlink:href="#DejaVuSans-Bold-50" x="85.009766"/>
      <use xlink:href="#DejaVuSans-Bold-5f" x="158.300781"/>
      <use xlink:href="#DejaVuSans-Bold-31" x="208.300781"/>
      <use xlink:href="#DejaVuSans-Bold-2d" x="277.880859"/>
      <use xlink:href="#DejaVuSans-Bold-31" x="319.384766"/>
     </g>
    </g>
   </g>
   <g id="text_10">
    <g clip-path="url(#pf519fdeea5)">
     <!-- OP_1-2 -->
     <g transform="translate(613.926563 198.372031)scale(0.1 -0.1)">
      <defs>
       <path id="DejaVuSans-Bold-32" d="M 1844 884 
L 3897 884 
L 3897 0 
L 506 0 
L 506 884 
L 2209 2388 
Q 2438 2594 2547 2791 
Q 2656 2988 2656 3200 
Q 2656 3528 2436 3728 
Q 2216 3928 1850 3928 
Q 1569 3928 1234 3808 
Q 900 3688 519 3450 
L 519 4475 
Q 925 4609 1322 4679 
Q 1719 4750 2100 4750 
Q 2938 4750 3402 4381 
Q 3866 4013 3866 3353 
Q 3866 2972 3669 2642 
Q 3472 2313 2841 1759 
L 1844 884 
z
" transform="scale(0.015625)"/>
      </defs>
      <use xlink:href="#DejaVuSans-Bold-4f"/>
      <use xlink:href="#DejaVuSans-Bold-50" x="85.009766"/>
      <use xlink:href="#DejaVuSans-Bold-5f" x="158.300781"/>
      <use xlink:href="#DejaVuSans-Bold-31" x="208.300781"/>
      <use xlink:href="#DejaVuSans-Bold-2d" x="277.880859"/>
      <use xlink:href="#DejaVuSans-Bold-32" x="319.384766"/>
     </g>
    </g>
   </g>
   <g id="text_11">
    <g clip-path="url(#pf519fdeea5)">
     <!-- OP_1-3 -->
     <g transform="translate(916.176563 198.372031)scale(0.1 -0.1)">
      <defs>
       <path id="DejaVuSans-Bold-33" d="M 2981 2516 
Q 3453 2394 3698 2092 
Q 3944 1791 3944 1325 
Q 3944 631 3412 270 
Q 2881 -91 1863 -91 
Q 1503 -91 1142 -33 
Q 781 25 428 141 
L 428 1069 
Q 766 900 1098 814 
Q 1431 728 1753 728 
Q 2231 728 2486 893 
Q 2741 1059 2741 1369 
Q 2741 1688 2480 1852 
Q 2219 2016 1709 2016 
L 1228 2016 
L 1228 2791 
L 1734 2791 
Q 2188 2791 2409 2933 
Q 2631 3075 2631 3366 
Q 2631 3634 2415 3781 
Q 2200 3928 1806 3928 
Q 1516 3928 1219 3862 
Q 922 3797 628 3669 
L 628 4550 
Q 984 4650 1334 4700 
Q 1684 4750 2022 4750 
Q 2931 4750 3382 4451 
Q 3834 4153 3834 3553 
Q 3834 3144 3618 2883 
Q 3403 2622 2981 2516 
z
" transform="scale(0.015625)"/>
      </defs>
      <use xlink:href="#DejaVuSans-Bold-4f"/>
      <use xlink:href="#DejaVuSans-Bold-50" x="85.009766"/>
      <use xlink:href="#DejaVuSans-Bold-5f" x="158.300781"/>
      <use xlink:href="#DejaVuSans-Bold-31" x="208.300781"/>
      <use xlink:href="#DejaVuSans-Bold-2d" x="277.880859"/>
      <use xlink:href="#DejaVuSans-Bold-33" x="319.384766"/>
     </g>
    </g>
   </g>
   <g id="text_12">
    <g clip-path="url(#pf519fdeea5)">
     <!-- OP_2-1 -->
     <g transform="translate(300.051562 303.972031)scale(0.1 -0.1)">
      <use xlink:href="#DejaVuSans-Bold-4f"/>
      <use xlink:href="#DejaVuSans-Bold-50" x="85.009766"/>
      <use xlink:href="#DejaVuSans-Bold-5f" x="158.300781"/>
      <use xlink:href="#DejaVuSans-Bold-32" x="208.300781"/>
      <use xlink:href="#DejaVuSans-Bold-2d" x="277.880859"/>
      <use xlink:href="#DejaVuSans-Bold-31" x="319.384766"/>
     </g>
    </g>
   </g>
   <g id="text_13">
    <g clip-path="url(#pf519fdeea5)">
     <!-- OP_2-2 -->
     <g transform="translate(579.051563 303.972031)scale(0.1 -0.1)">
      <use xlink:href="#DejaVuSans-Bold-4f"/>
      <use xlink:href="#DejaVuSans-Bold-50" x="85.009766"/>
      <use xlink:href="#DejaVuSans-Bold-5f" x="158.300781"/>
      <use xlink:href="#DejaVuSans-Bold-32" x="208.300781"/>
      <use xlink:href="#DejaVuSans-Bold-2d" x="277.880859"/>
      <use xlink:href="#DejaVuSans-Bold-32" x="319.384766"/>
     </g>
    </g>
   </g>
   <g id="text_14">
    <g clip-path="url(#pf519fdeea5)">
     <!-- OP_2-3 -->
     <g transform="translate(858.051563 303.972031)scale(0.1 -0.1)">
      <use xlink:href="#DejaVuSans-Bold-4f"/>
      <use xlink:href="#DejaVuSans-Bold-50" x="85.009766"/>
      <use xlink:href="#DejaVuSans-Bold-5f" x="158.300781"/>
      <use xlink:href="#DejaVuSans-Bold-32" x="208.300781"/>
      <use xlink:href="#DejaVuSans-Bold-2d" x="277.880859"/>
      <use xlink:href="#DejaVuSans-Bold-33" x="319.384766"/>
     </g>
    </g>
   </g>
   <g id="text_15">
    <g clip-path="url(#pf519fdeea5)">
     <!-- OP_2-4 -->
     <g transform="translate(1137.051563 303.972031)scale(0.1 -0.1)">
      <defs>
       <path id="DejaVuSans-Bold-34" d="M 2356 3675 
L 1038 1722 
L 2356 1722 
L 2356 3675 
z
M 2156 4666 
L 3494 4666 
L 3494 1722 
L 4159 1722 
L 4159 850 
L 3494 850 
L 3494 0 
L 2356 0 
L 2356 850 
L 288 850 
L 288 1881 
L 2156 4666 
z
" transform="scale(0.015625)"/>
      </defs>
      <use xlink:href="#DejaVuSans-Bold-4f"/>
      <use xlink:href="#DejaVuSans-Bold-50" x="85.009766"/>
      <use xlink:href="#DejaVuSans-Bold-5f" x="158.300781"/>
      <use xlink:href="#DejaVuSans-Bold-32" x="208.300781"/>
      <use xlink:href="#DejaVuSans-Bold-2d" x="277.880859"/>
      <use xlink:href="#DejaVuSans-Bold-34" x="319.384766"/>
     </g>
    </g>
   </g>
   <g id="text_16">
    <g clip-path="url(#pf519fdeea5)">
     <!-- OP_0-1 -->
     <g transform="translate(334.926562 409.572031)scale(0.1 -0.1)">
      <defs>
       <path id="DejaVuSans-Bold-30" d="M 2944 2338 
Q 2944 3213 2780 3570 
Q 2616 3928 2228 3928 
Q 1841 3928 1675 3570 
Q 1509 3213 1509 2338 
Q 1509 1453 1675 1090 
Q 1841 728 2228 728 
Q 2613 728 2778 1090 
Q 2944 1453 2944 2338 
z
M 4147 2328 
Q 4147 1169 3647 539 
Q 3147 -91 2228 -91 
Q 1306 -91 806 539 
Q 306 1169 306 2328 
Q 306 3491 806 4120 
Q 1306 4750 2228 4750 
Q 3147 4750 3647 4120 
Q 4147 3491 4147 2328 
z
" transform="scale(0.015625)"/>
      </defs>
      <use xlink:href="#DejaVuSans-Bold-4f"/>
      <use xlink:href="#DejaVuSans-Bold-50" x="85.009766"/>
      <use xlink:href="#DejaVuSans-Bold-5f" x="158.300781"/>
      <use xlink:href="#DejaVuSans-Bold-30" x="208.300781"/>
      <use xlink:href="#DejaVuSans-Bold-2d" x="277.880859"/>
      <use xlink:href="#DejaVuSans-Bold-31" x="319.384766"/>
     </g>
    </g>
   </g>
   <g id="text_17">
    <g clip-path="url(#pf519fdeea5)">
     <!-- OP_0-2 -->
     <g transform="translate(683.676563 409.572031)scale(0.1 -0.1)">
      <use xlink:href="#DejaVuSans-Bold-4f"/>
      <use xlink:href="#DejaVuSans-Bold-50" x="85.009766"/>
      <use xlink:href="#DejaVuSans-Bold-5f" x="158.300781"/>
      <use xlink:href="#DejaVuSans-Bold-30" x="208.300781"/>
      <use xlink:href="#DejaVuSans-Bold-2d" x="277.880859"/>
      <use xlink:href="#DejaVuSans-Bold-32" x="319.384766"/>
     </g>
    </g>
   </g>
   <g id="text_18">
    <!-- Flexible Job Shop Solution -->
    <g transform="translate(660.404063 63.12)scale(0.12 -0.12)">
     <defs>
      <path id="DejaVuSans-46" d="M 628 4666 
L 3309 4666 
L 3309 4134 
L 1259 4134 
L 1259 2759 
L 3109 2759 
L 3109 2228 
L 1259 2228 
L 1259 0 
L 628 0 
L 628 4666 
z
" transform="scale(0.015625)"/>
      <path id="DejaVuSans-6c" d="M 603 4863 
L 1178 4863 
L 1178 0 
L 603 0 
L 603 4863 
z
" transform="scale(0.015625)"/>
      <path id="DejaVuSans-78" d="M 3513 3500 
L 2247 1797 
L 3578 0 
L 2900 0 
L 1881 1375 
L 863 0 
L 184 0 
L 1544 1831 
L 300 3500 
L 978 3500 
L 1906 2253 
L 2834 3500 
L 3513 3500 
z
" transform="scale(0.015625)"/>
      <path id="DejaVuSans-62" d="M 3116 1747 
Q 3116 2381 2855 2742 
Q 2594 3103 2138 3103 
Q 1681 3103 1420 2742 
Q 1159 2381 1159 1747 
Q 1159 1113 1420 752 
Q 1681 391 2138 391 
Q 2594 391 2855 752 
Q 3116 1113 3116 1747 
z
M 1159 2969 
Q 1341 3281 1617 3432 
Q 1894 3584 2278 3584 
Q 2916 3584 3314 3078 
Q 3713 2572 3713 1747 
Q 3713 922 3314 415 
Q 2916 -91 2278 -91 
Q 1894 -91 1617 61 
Q 1341 213 1159 525 
L 1159 0 
L 581 0 
L 581 4863 
L 1159 4863 
L 1159 2969 
z
" transform="scale(0.015625)"/>
      <path id="DejaVuSans-20" transform="scale(0.015625)"/>
      <path id="DejaVuSans-4a" d="M 628 4666 
L 1259 4666 
L 1259 325 
Q 1259 -519 939 -900 
Q 619 -1281 -91 -1281 
L -331 -1281 
L -331 -750 
L -134 -750 
Q 284 -750 456 -515 
Q 628 -281 628 325 
L 628 4666 
z
" transform="scale(0.015625)"/>
      <path id="DejaVuSans-6f" d="M 1959 3097 
Q 1497 3097 1228 2736 
Q 959 2375 959 1747 
Q 959 1119 1226 758 
Q 1494 397 1959 397 
Q 2419 397 2687 759 
Q 2956 1122 2956 1747 
Q 2956 2369 2687 2733 
Q 2419 3097 1959 3097 
z
M 1959 3584 
Q 2709 3584 3137 3096 
Q 3566 2609 3566 1747 
Q 3566 888 3137 398 
Q 2709 -91 1959 -91 
Q 1206 -91 779 398 
Q 353 888 353 1747 
Q 353 2609 779 3096 
Q 1206 3584 1959 3584 
z
" transform="scale(0.015625)"/>
      <path id="DejaVuSans-53" d="M 3425 4513 
L 3425 3897 
Q 3066 4069 2747 4153 
Q 2428 4238 2131 4238 
Q 1616 4238 1336 4038 
Q 1056 3838 1056 3469 
Q 1056 3159 1242 3001 
Q 1428 2844 1947 2747 
L 2328 2669 
Q 3034 2534 3370 2195 
Q 3706 1856 3706 1288 
Q 3706 609 3251 259 
Q 2797 -91 1919 -91 
Q 1588 -91 1214 -16 
Q 841 59 441 206 
L 441 856 
Q 825 641 1194 531 
Q 1563 422 1919 422 
Q 2459 422 2753 634 
Q 3047 847 3047 1241 
Q 3047 1584 2836 1778 
Q 2625 1972 2144 2069 
L 1759 2144 
Q 1053 2284 737 2584 
Q 422 2884 422 3419 
Q 422 4038 858 4394 
Q 1294 4750 2059 4750 
Q 2388 4750 2728 4690 
Q 3069 4631 3425 4513 
z
" transform="scale(0.015625)"/>
      <path id="DejaVuSans-70" d="M 1159 525 
L 1159 -1331 
L 581 -1331 
L 581 3500 
L 1159 3500 
L 1159 2969 
Q 1341 3281 1617 3432 
Q 1894 3584 2278 3584 
Q 2916 3584 3314 3078 
Q 3713 2572 3713 1747 
Q 3713 922 3314 415 
Q 2916 -91 2278 -91 
Q 1894 -91 1617 61 
Q 1341 213 1159 525 
z
M 3116 1747 
Q 3116 2381 2855 2742 
Q 2594 3103 2138 3103 
Q 1681 3103 1420 2742 
Q 1159 2381 1159 1747 
Q 1159 1113 1420 752 
Q 1681 391 2138 391 
Q 2594 391 2855 752 
Q 3116 1113 3116 1747 
z
" transform="scale(0.015625)"/>
      <path id="DejaVuSans-75" d="M 544 1381 
L 544 3500 
L 1119 3500 
L 1119 1403 
Q 1119 906 1312 657 
Q 1506 409 1894 409 
Q 2359 409 2629 706 
Q 2900 1003 2900 1516 
L 2900 3500 
L 3475 3500 
L 3475 0 
L 2900 0 
L 2900 538 
Q 2691 219 2414 64 
Q 2138 -91 1772 -91 
Q 1169 -91 856 284 
Q 544 659 544 1381 
z
M 1991 3584 
L 1991 3584 
z
" transform="scale(0.015625)"/>
      <path id="DejaVuSans-74" d="M 1172 4494 
L 1172 3500 
L 2356 3500 
L 2356 3053 
L 1172 3053 
L 1172 1153 
Q 1172 725 1289 603 
Q 1406 481 1766 481 
L 2356 481 
L 2356 0 
L 1766 0 
Q 1100 0 847 248 
Q 594 497 594 1153 
L 594 3053 
L 172 3053 
L 172 3500 
L 594 3500 
L 594 4494 
L 1172 4494 
z
" transform="scale(0.015625)"/>
     </defs>
     <use xlink:href="#DejaVuSans-46"/>
     <use xlink:href="#DejaVuSans-6c" x="57.519531"/>
     <use xlink:href="#DejaVuSans-65" x="85.302734"/>
     <use xlink:href="#DejaVuSans-78" x="145.076172"/>
     <use xlink:href="#DejaVuSans-69" x="204.255859"/>
     <use xlink:href="#DejaVuSans-62" x="232.039062"/>
     <use xlink:href="#DejaVuSans-6c" x="295.515625"/>
     <use xlink:href="#DejaVuSans-65" x="323.298828"/>
     <use xlink:href="#DejaVuSans-20" x="384.822266"/>
     <use xlink:href="#DejaVuSans-4a" x="416.609375"/>
     <use xlink:href="#DejaVuSans-6f" x="446.101562"/>
     <use xlink:href="#DejaVuSans-62" x="507.283203"/>
     <use xlink:href="#DejaVuSans-20" x="570.759766"/>
     <use xlink:href="#DejaVuSans-53" x="602.546875"/>
     <use xlink:href="#DejaVuSans-68" x="666.023438"/>
     <use xlink:href="#DejaVuSans-6f" x="729.402344"/>
     <use xlink:href="#DejaVuSans-70" x="790.583984"/>
     <use xlink:href="#DejaVuSans-20" x="854.060547"/>
     <use xlink:href="#DejaVuSans-53" x="885.847656"/>
     <use xlink:href="#DejaVuSans-6f" x="949.324219"/>
     <use xlink:href="#DejaVuSans-6c" x="1010.505859"/>
     <use xlink:href="#DejaVuSans-75" x="1038.289062"/>
     <use xlink:href="#DejaVuSans-74" x="1101.667969"/>
     <use xlink:href="#DejaVuSans-69" x="1140.876953"/>
     <use xlink:href="#DejaVuSans-6f" x="1168.660156"/>
     <use xlink:href="#DejaVuSans-6e" x="1229.841797"/>
    </g>
   </g>
   <g id="legend_1">
    <g id="patch_16">
     <path d="M 1286.837 79.949 
L 1290.169 79.949 
Q 1291.835 79.949 1291.835 78.283 
L 1291.835 74.951 
Q 1291.835 73.285 1290.169 73.285 
L 1286.837 73.285 
Q 1285.171 73.285 1285.171 74.951 
L 1285.171 78.283 
Q 1285.171 79.949 1286.837 79.949 
z
" style="fill: #ffffff; opacity: 0.8; stroke: #cccccc; stroke-linejoin: miter"/>
    </g>
   </g>
  </g>
 </g>
 <defs>
  <clipPath id="pf519fdeea5">
   <rect x="180" y="69.12" width="1116" height="443.52"/>
  </clipPath>
 </defs>
</svg>
